<svg width="120" height="110" viewBox="0 0 120 110" fill="none" xmlns="http://www.w3.org/2000/svg">
<rect width="120" height="110" rx="14" fill="#353B40"/>
<path d="M76.5703 67.2227C75.4805 73.1562 70.3945 77.0312 63.25 77.8789V81.875C63.25 84.0547 61.4336 85.75 59.375 85.75C57.1953 85.75 55.5 84.0547 55.5 81.875V77.7578C55.3789 77.6367 55.3789 77.7578 55.2578 77.6367C52.1094 77.2734 48.8398 76.0625 45.8125 75.0938L44.4805 74.6094C42.543 73.8828 41.4531 71.7031 42.0586 69.7656C42.7852 67.707 44.9648 66.6172 47.0234 67.3438L48.3555 67.707C51.0195 68.6758 53.9258 69.6445 56.3477 70.0078C62.1602 70.8555 68.2148 69.8867 68.9414 65.8906C69.5469 62.3789 67.4883 61.0469 58.2852 58.5039L56.4688 58.0195C51.1406 56.5664 40.1211 53.418 42.0586 42.2773C43.1484 36.4648 48.2344 32.5898 55.5 31.7422V27.625C55.5 25.5664 57.1953 23.75 59.375 23.75C61.4336 23.75 63.25 25.5664 63.25 27.625V31.8633C63.25 31.9844 63.25 31.8633 63.3711 31.9844C65.4297 32.2266 67.7305 32.832 70.7578 33.8008C72.6953 34.5273 73.7852 36.707 73.1797 38.7656C72.4531 40.7031 70.2734 41.793 68.3359 41.1875C65.793 40.3398 63.7344 39.8555 62.1602 39.6133C56.5898 38.7656 50.4141 39.7344 49.6875 43.7305C49.2031 46.6367 50.293 48.2109 58.5273 50.5117L60.3438 51.1172C67.6094 53.0547 78.5078 56.082 76.5703 67.2227Z" fill="white"/>
</svg>
