<svg width="120" height="110" viewBox="0 0 120 110" fill="none" xmlns="http://www.w3.org/2000/svg">
<rect width="120" height="110" rx="14" fill="#353B40"/>
<g clip-path="url(#clip0_36_37)">
<path d="M85.262 76.5145C56.9261 90 39.3405 78.7171 28.0835 71.864C27.3869 71.4321 26.2029 71.965 27.2302 73.1449C30.9805 77.6922 43.271 88.6526 59.3137 88.6526C75.3674 88.6526 84.9179 79.8929 86.1126 78.3649C87.2992 76.8497 86.461 76.0139 85.2617 76.5145H85.262ZM93.22 72.1196C92.4591 71.1287 88.593 70.944 86.16 71.2429C83.7231 71.5331 80.0655 73.0224 80.3835 73.9166C80.5466 74.2516 80.8797 74.1014 82.5537 73.9508C84.2323 73.7834 88.9347 73.1899 89.9146 74.4708C90.899 75.7605 88.4148 81.9046 87.9611 82.8955C87.5227 83.8864 88.1286 84.1419 88.952 83.4819C89.7641 82.8222 91.2342 81.1138 92.2208 78.6961C93.2007 76.2651 93.7984 72.8741 93.22 72.1196Z" fill="#FF9900"/>
<path fill-rule="evenodd" clip-rule="evenodd" d="M66.2093 48.9975C66.2093 52.5358 66.2987 55.4867 64.5103 58.629C63.0667 61.184 60.7802 62.7552 58.2254 62.7552C54.7379 62.7552 52.7068 60.0981 52.7068 56.1765C52.7068 48.4352 59.6431 47.0302 66.2093 47.0302V48.9975ZM75.3683 71.1352C74.7678 71.6715 73.8992 71.71 73.2223 71.3522C70.2076 68.8486 69.6709 67.6862 68.0104 65.2973C63.0285 70.3815 59.5028 71.9015 53.0391 71.9015C45.4001 71.9015 39.4473 67.1878 39.4473 57.7477C39.4473 50.3772 43.4458 45.3568 49.13 42.9043C54.061 40.7324 60.9463 40.3493 66.2093 39.7491V38.5737C66.2093 36.4148 66.3752 33.86 65.1107 31.9951C63.9992 30.3217 61.8787 29.6318 60.0136 29.6318C56.5519 29.6318 53.4605 31.4073 52.7068 35.0863C52.5534 35.904 51.9532 36.7088 51.1357 36.7471L42.3214 35.802C41.5806 35.6356 40.7632 35.0354 40.9675 33.8983C42.9986 23.2193 52.6428 20 61.278 20C65.698 20 71.4718 21.1753 74.9593 24.5223C79.3792 28.6482 78.9576 34.1538 78.9576 40.1449V54.2987C78.9576 58.5525 80.7204 60.4174 82.381 62.7169C82.9685 63.5344 83.0964 64.5183 82.3554 65.1311C80.5031 66.6767 77.2073 69.5511 75.3936 71.1607L75.368 71.1352" fill="black"/>
<path d="M85.262 76.5145C56.9261 90 39.3405 78.7171 28.0835 71.864C27.3869 71.4321 26.2029 71.965 27.2302 73.1449C30.9805 77.6922 43.271 88.6526 59.3137 88.6526C75.3674 88.6526 84.9179 79.8929 86.1126 78.3649C87.2992 76.8497 86.461 76.0139 85.2617 76.5145H85.262ZM93.22 72.1196C92.4591 71.1287 88.593 70.944 86.16 71.2429C83.7231 71.5331 80.0655 73.0224 80.3835 73.9166C80.5466 74.2516 80.8797 74.1014 82.5537 73.9508C84.2323 73.7834 88.9347 73.1899 89.9146 74.4708C90.899 75.7605 88.4148 81.9046 87.9611 82.8955C87.5227 83.8864 88.1286 84.1419 88.952 83.4819C89.7641 82.8222 91.2342 81.1138 92.2208 78.6961C93.2007 76.2651 93.7984 72.8741 93.22 72.1196Z" fill="#FF9900"/>
<path fill-rule="evenodd" clip-rule="evenodd" d="M66.2093 48.9975C66.2093 52.5358 66.2987 55.4867 64.5103 58.629C63.0667 61.184 60.7802 62.7552 58.2254 62.7552C54.7379 62.7552 52.7068 60.0981 52.7068 56.1765C52.7068 48.4352 59.6431 47.0302 66.2093 47.0302V48.9975ZM75.3683 71.1352C74.7678 71.6715 73.8992 71.71 73.2223 71.3522C70.2076 68.8486 69.6709 67.6862 68.0104 65.2973C63.0285 70.3815 59.5028 71.9015 53.0391 71.9015C45.4001 71.9015 39.4473 67.1878 39.4473 57.7477C39.4473 50.3772 43.4458 45.3568 49.13 42.9043C54.061 40.7324 60.9463 40.3493 66.2093 39.7491V38.5738C66.2093 36.4148 66.3752 33.86 65.1107 31.9951C63.9992 30.3217 61.8787 29.6318 60.0136 29.6318C56.5519 29.6318 53.4605 31.4073 52.7068 35.0863C52.5534 35.904 51.9532 36.7088 51.1357 36.7471L42.3214 35.802C41.5806 35.6356 40.7632 35.0354 40.9675 33.8983C42.9986 23.2193 52.6428 20 61.278 20C65.698 20 71.4718 21.1753 74.9593 24.5223C79.3792 28.6482 78.9576 34.1538 78.9576 40.1449V54.2987C78.9576 58.5525 80.7204 60.4174 82.381 62.7169C82.9685 63.5344 83.0964 64.5183 82.3554 65.1311C80.5031 66.6767 77.2073 69.5511 75.3936 71.1608L75.3683 71.1352Z" fill="white"/>
</g>
<defs>
<clipPath id="clip0_36_37">
<rect width="70" height="70" fill="white" transform="translate(25 20)"/>
</clipPath>
</defs>
</svg>
