<svg width="40" height="40" viewBox="0 0 40 40" fill="none" xmlns="http://www.w3.org/2000/svg">
<path d="M30.2333 36.0332C28.7667 36.4665 27.0333 36.6665 25 36.6665H15C12.9667 36.6665 11.2333 36.4665 9.76666 36.0332C10.1333 31.6999 14.5833 28.2832 20 28.2832C25.4167 28.2832 29.8667 31.6999 30.2333 36.0332Z" stroke="white" stroke-width="1.5" stroke-linecap="round" stroke-linejoin="round"/>
<path d="M25 3.3335H15C6.66665 3.3335 3.33331 6.66683 3.33331 15.0002V25.0002C3.33331 31.3002 5.23331 34.7502 9.76665 36.0335C10.1333 31.7002 14.5833 28.2835 20 28.2835C25.4166 28.2835 29.8666 31.7002 30.2333 36.0335C34.7666 34.7502 36.6666 31.3002 36.6666 25.0002V15.0002C36.6666 6.66683 33.3333 3.3335 25 3.3335ZM20 23.6168C16.7 23.6168 14.0333 20.9335 14.0333 17.6335C14.0333 14.3335 16.7 11.6668 20 11.6668C23.3 11.6668 25.9666 14.3335 25.9666 17.6335C25.9666 20.9335 23.3 23.6168 20 23.6168Z" stroke="white" stroke-width="1.5" stroke-linecap="round" stroke-linejoin="round"/>
<path d="M25.9667 17.6332C25.9667 20.9332 23.3 23.6165 20 23.6165C16.7 23.6165 14.0333 20.9332 14.0333 17.6332C14.0333 14.3332 16.7 11.6665 20 11.6665C23.3 11.6665 25.9667 14.3332 25.9667 17.6332Z" stroke="white" stroke-width="1.5" stroke-linecap="round" stroke-linejoin="round"/>
</svg>
