<svg width="27" height="27" viewBox="0 0 27 27" fill="none" xmlns="http://www.w3.org/2000/svg">
<g clip-path="url(#clip0_161_3042)">
<path d="M4.01562 23.235V18.931C4.01563 18.0797 4.26805 17.2476 4.74098 16.5398C5.21392 15.832 5.88612 15.2803 6.67257 14.9546C7.45903 14.6288 8.32443 14.5436 9.15933 14.7097C9.99423 14.8757 10.7611 15.2856 11.3631 15.8876C11.965 16.4895 12.3749 17.2564 12.541 18.0913C12.7071 18.9262 12.6218 19.7916 12.2961 20.5781C11.9703 21.3645 11.4186 22.0367 10.7108 22.5097C10.003 22.9826 9.17091 23.235 8.31965 23.235H4.01562Z" stroke="white" stroke-width="2.5" stroke-linecap="round" stroke-linejoin="round"/>
<path d="M23.3837 3.8667C20.3126 4.28677 17.4119 5.52821 14.9877 7.45996C12.5635 9.39172 10.7059 11.9421 9.61084 14.842" stroke="white" stroke-width="2.5" stroke-linecap="round" stroke-linejoin="round"/>
<path d="M23.3837 3.8667C22.9636 6.93782 21.7222 9.83856 19.7905 12.2627C17.8587 14.6869 15.3083 16.5445 12.4084 17.6396" stroke="white" stroke-width="2.5" stroke-linecap="round" stroke-linejoin="round"/>
<path d="M12.1933 10.3228C14.2842 11.2878 15.9627 12.9663 16.9277 15.0572" stroke="white" stroke-width="2.5" stroke-linecap="round" stroke-linejoin="round"/>
</g>
<defs>
<clipPath id="clip0_161_3042">
<rect width="25.8242" height="25.8242" fill="white" transform="translate(0.787598 0.638672)"/>
</clipPath>
</defs>
</svg>
