<svg width="32" height="33" viewBox="0 0 32 33" fill="none" xmlns="http://www.w3.org/2000/svg">
<path d="M12.0832 19.0846C12.0832 21.2837 15.648 23.0661 20.0463 23.0661C24.4446 23.0661 28.0094 21.2837 28.0094 19.0846C28.0094 16.8854 24.4446 15.103 20.0463 15.103C15.648 15.103 12.0832 16.8854 12.0832 19.0846Z" stroke="white" stroke-width="2.5" stroke-linecap="round" stroke-linejoin="round"/>
<path d="M12.0832 19.0845V24.3932C12.0832 26.591 15.648 28.3748 20.0463 28.3748C24.4446 28.3748 28.0094 26.591 28.0094 24.3932V19.0845" stroke="white" stroke-width="2.5" stroke-linecap="round" stroke-linejoin="round"/>
<path d="M4.12009 8.4669C4.12009 9.88964 5.63838 11.2036 8.10164 11.9149C10.5649 12.6263 13.6015 12.6263 16.0647 11.9149C18.528 11.2036 20.0463 9.88964 20.0463 8.4669C20.0463 7.04416 18.528 5.73025 16.0647 5.01888C13.6015 4.30751 10.5649 4.30751 8.10164 5.01888C5.63838 5.73025 4.12009 7.04416 4.12009 8.4669Z" stroke="white" stroke-width="2.5" stroke-linecap="round" stroke-linejoin="round"/>
<path d="M4.12009 8.4668V21.7386C4.12009 22.9172 5.14467 23.6631 6.77445 24.393" stroke="white" stroke-width="2.5" stroke-linecap="round" stroke-linejoin="round"/>
<path d="M4.12009 15.103C4.12009 16.2816 5.14467 17.0274 6.77445 17.7574" stroke="white" stroke-width="2.5" stroke-linecap="round" stroke-linejoin="round"/>
</svg>
