<svg width="27" height="27" viewBox="0 0 27 27" fill="none" xmlns="http://www.w3.org/2000/svg">
<path d="M16.6676 9.24658H16.6805" stroke="white" stroke-width="2.5" stroke-linecap="round" stroke-linejoin="round"/>
<path d="M3.75549 7.09472C3.75549 6.2386 4.09559 5.41754 4.70096 4.81217C5.30633 4.20679 6.12739 3.8667 6.98352 3.8667H19.8956C20.7517 3.8667 21.5728 4.20679 22.1782 4.81217C22.7835 5.41754 23.1236 6.2386 23.1236 7.09472V20.0068C23.1236 20.8629 22.7835 21.684 22.1782 22.2894C21.5728 22.8947 20.7517 23.2348 19.8956 23.2348H6.98352C6.12739 23.2348 5.30633 22.8947 4.70096 22.2894C4.09559 21.684 3.75549 20.8629 3.75549 20.0068V7.09472Z" stroke="white" stroke-width="2.5" stroke-linecap="round" stroke-linejoin="round"/>
<path d="M3.75549 17.8546L9.13553 12.4746C10.1341 11.5137 11.365 11.5137 12.3636 12.4746L17.7436 17.8546" stroke="white" stroke-width="2.5" stroke-linecap="round" stroke-linejoin="round"/>
<path d="M15.5916 15.7029L16.6676 14.6269C17.6661 13.666 18.8971 13.666 19.8956 14.6269L23.1236 17.8549" stroke="white" stroke-width="2.5" stroke-linecap="round" stroke-linejoin="round"/>
</svg>
