<svg width="32" height="32" viewBox="0 0 32 32" fill="none" xmlns="http://www.w3.org/2000/svg">
<path d="M8.09552 12.0244H16.0586" stroke="white" stroke-width="2.5" stroke-linecap="round" stroke-linejoin="round"/>
<path d="M5.44116 6.71533H10.7499" stroke="white" stroke-width="2.5" stroke-linecap="round" stroke-linejoin="round"/>
<path d="M8.09552 6.71533V21.3144C8.09552 21.6663 8.23535 22.0039 8.48424 22.2528C8.73314 22.5017 9.07071 22.6415 9.4227 22.6415H16.0586" stroke="white" stroke-width="2.5" stroke-linecap="round" stroke-linejoin="round"/>
<path d="M16.0587 10.6973C16.0587 10.3453 16.1985 10.0077 16.4474 9.75884C16.6963 9.50995 17.0338 9.37012 17.3858 9.37012H25.3489C25.7009 9.37012 26.0385 9.50995 26.2874 9.75884C26.5363 10.0077 26.6761 10.3453 26.6761 10.6973V13.3517C26.6761 13.7037 26.5363 14.0412 26.2874 14.2901C26.0385 14.539 25.7009 14.6789 25.3489 14.6789H17.3858C17.0338 14.6789 16.6963 14.539 16.4474 14.2901C16.1985 14.0412 16.0587 13.7037 16.0587 13.3517V10.6973Z" stroke="white" stroke-width="2.5" stroke-linecap="round" stroke-linejoin="round"/>
<path d="M16.0587 21.3145C16.0587 20.9625 16.1985 20.6249 16.4474 20.376C16.6963 20.1271 17.0338 19.9873 17.3858 19.9873H25.3489C25.7009 19.9873 26.0385 20.1271 26.2874 20.376C26.5363 20.6249 26.6761 20.9625 26.6761 21.3145V23.9689C26.6761 24.3208 26.5363 24.6584 26.2874 24.9073C26.0385 25.1562 25.7009 25.296 25.3489 25.296H17.3858C17.0338 25.296 16.6963 25.1562 16.4474 24.9073C16.1985 24.6584 16.0587 24.3208 16.0587 23.9689V21.3145Z" stroke="white" stroke-width="2.5" stroke-linecap="round" stroke-linejoin="round"/>
</svg>
