<svg width="32" height="32" viewBox="0 0 32 32" fill="none" xmlns="http://www.w3.org/2000/svg">
<path d="M9.30537 9.37012H22.5772C23.2812 9.37012 23.9563 9.64977 24.4541 10.1476C24.9519 10.6454 25.2316 11.3205 25.2316 12.0245V13.3517L26.5588 14.6789V18.6604L25.2316 19.9876V23.9691C25.2316 24.6731 24.9519 25.3483 24.4541 25.8461C23.9563 26.3439 23.2812 26.6235 22.5772 26.6235H9.30537C8.60139 26.6235 7.92624 26.3439 7.42845 25.8461C6.93066 25.3483 6.65101 24.6731 6.65101 23.9691V19.9876L5.32382 18.6604V14.6789L6.65101 13.3517V12.0245C6.65101 11.3205 6.93066 10.6454 7.42845 10.1476C7.92624 9.64977 8.60139 9.37012 9.30537 9.37012Z" stroke="white" stroke-width="2.5" stroke-linecap="round" stroke-linejoin="round"/>
<path d="M13.2869 21.3145H18.5957" stroke="white" stroke-width="2.5" stroke-linecap="round" stroke-linejoin="round"/>
<path d="M11.2961 16.0059C11.6626 16.0059 11.9597 15.7088 11.9597 15.3423C11.9597 14.9758 11.6626 14.6787 11.2961 14.6787C10.9296 14.6787 10.6325 14.9758 10.6325 15.3423C10.6325 15.7088 10.9296 16.0059 11.2961 16.0059Z" fill="black" stroke="white" stroke-width="2.5" stroke-linecap="round" stroke-linejoin="round"/>
<path d="M20.5864 16.0059C20.9529 16.0059 21.25 15.7088 21.25 15.3423C21.25 14.9758 20.9529 14.6787 20.5864 14.6787C20.2199 14.6787 19.9228 14.9758 19.9228 15.3423C19.9228 15.7088 20.2199 16.0059 20.5864 16.0059Z" fill="black" stroke="white" stroke-width="2.5" stroke-linecap="round" stroke-linejoin="round"/>
<path d="M11.9597 9.36977L10.6325 4.06104" stroke="white" stroke-width="2.5" stroke-linecap="round" stroke-linejoin="round"/>
<path d="M19.9228 9.36977L21.25 4.06104" stroke="white" stroke-width="2.5" stroke-linecap="round" stroke-linejoin="round"/>
</svg>
